<svg width="1200" height="720" viewBox="0 0 1200 720" xmlns="http://www.w3.org/2000/svg" role="img" aria-label="AI dashboard mockup">
  <defs>
    <linearGradient id="g1" x1="0" y1="0" x2="1" y2="1">
      <stop offset="0%" stop-color="#3b82f6" stop-opacity="0.25"/>
      <stop offset="100%" stop-color="#8b5cf6" stop-opacity="0.25"/>
    </linearGradient>
    <filter id="blur1" x="-20%" y="-20%" width="140%" height="140%">
      <feGaussianBlur in="SourceGraphic" stdDeviation="8"/>
    </filter>
  </defs>

  <rect x="0" y="0" width="1200" height="720" fill="white"/>
  <rect x="40" y="40" rx="16" ry="16" width="1120" height="640" fill="url(#g1)"/>
  <rect x="40" y="40" rx="16" ry="16" width="1120" height="640" fill="#ffffff" opacity="0.7"/>

  <rect x="80" y="80" width="1040" height="56" rx="12" fill="#f5f7fb"/>
  <circle cx="108" cy="108" r="10" fill="#1e40af"/>
  <rect x="140" y="96" width="200" height="24" rx="6" fill="#dbeafe"/>
  <rect x="360" y="96" width="120" height="24" rx="6" fill="#e5e7eb"/>

  <rect x="80" y="160" width="240" height="480" rx="12" fill="#f8fafc"/>
  <rect x="96" y="184" width="208" height="18" rx="6" fill="#e5e7eb"/>
  <rect x="96" y="214" width="176" height="14" rx="6" fill="#e5e7eb"/>
  <rect x="96" y="252" width="208" height="18" rx="6" fill="#e5e7eb"/>
  <rect x="96" y="282" width="176" height="14" rx="6" fill="#e5e7eb"/>
  <rect x="96" y="320" width="208" height="18" rx="6" fill="#e5e7eb"/>
  <rect x="96" y="350" width="176" height="14" rx="6" fill="#e5e7eb"/>

  <rect x="344" y="160" width="776" height="240" rx="12" fill="#f5f7fb"/>
  <rect x="364" y="182" width="160" height="16" rx="6" fill="#dbeafe"/>
  <rect x="364" y="208" width="720" height="10" rx="5" fill="#e5e7eb"/>
  <rect x="364" y="228" width="720" height="10" rx="5" fill="#e5e7eb"/>
  <rect x="364" y="248" width="540" height="10" rx="5" fill="#e5e7eb"/>

  <g opacity="0.9">
    <rect x="344" y="420" width="240" height="220" rx="12" fill="#f8fafc"/>
    <rect x="364" y="444" width="160" height="14" rx="6" fill="#dbeafe"/>
    <rect x="364" y="468" width="200" height="10" rx="5" fill="#e5e7eb"/>
    <rect x="364" y="488" width="200" height="10" rx="5" fill="#e5e7eb"/>
    <rect x="364" y="516" width="180" height="60" rx="8" fill="#e0e7ff"/>
  </g>

  <g opacity="0.9">
    <rect x="604" y="420" width="240" height="220" rx="12" fill="#f8fafc"/>
    <rect x="624" y="444" width="120" height="14" rx="6" fill="#dbeafe"/>
    <rect x="624" y="468" width="200" height="10" rx="5" fill="#e5e7eb"/>
    <rect x="624" y="488" width="200" height="10" rx="5" fill="#e5e7eb"/>
    <rect x="624" y="516" width="180" height="60" rx="8" fill="#fee2e2"/>
  </g>

  <g opacity="0.9">
    <rect x="864" y="420" width="256" height="220" rx="12" fill="#f8fafc"/>
    <rect x="884" y="444" width="140" height="14" rx="6" fill="#dbeafe"/>
    <rect x="884" y="468" width="200" height="10" rx="5" fill="#e5e7eb"/>
    <rect x="884" y="488" width="200" height="10" rx="5" fill="#e5e7eb"/>
    <rect x="884" y="516" width="200" height="60" rx="8" fill="#dcfce7"/>
  </g>

  <circle cx="1100" cy="120" r="60" fill="#8b5cf6" opacity="0.2" filter="url(#blur1)"/>
  <circle cx="980" cy="80" r="30" fill="#3b82f6" opacity="0.2" filter="url(#blur1)"/>
</svg>
